<svg width="26" height="16" viewBox="0 0 26 16" fill="none" xmlns="http://www.w3.org/2000/svg">
<rect width="26" height="16" fill="#848895"/>
<g clip-path="url(#clip0_1479_1570)">
<path fill-rule="evenodd" clip-rule="evenodd" d="M13 0C8.58233 0 5 3.67233 5 8.20233C5 11.8267 7.29233 14.9013 10.471 15.9857C10.871 16.0617 11.0177 15.808 11.0177 15.5913C11.0177 15.3957 11.01 14.7497 11.0067 14.0643C8.781 14.5603 8.31133 13.0963 8.31133 13.0963C7.94733 12.1483 7.423 11.8963 7.423 11.8963C6.69733 11.387 7.478 11.3977 7.478 11.3977C8.28133 11.4553 8.70433 12.2427 8.70433 12.2427C9.41767 13.4967 10.5757 13.1343 11.0323 12.9247C11.104 12.3947 11.3113 12.0327 11.54 11.828C9.76333 11.6203 7.89533 10.917 7.89533 7.774C7.89533 6.87867 8.20767 6.14667 8.71967 5.57233C8.63633 5.36567 8.36267 4.53133 8.797 3.40167C8.797 3.40167 9.469 3.18133 10.9977 4.24233C11.6357 4.06067 12.3203 3.96967 13 3.96633C13.68 3.96967 14.365 4.06067 15.0043 4.24233C16.531 3.18133 17.202 3.40167 17.202 3.40167C17.6373 4.53167 17.3633 5.36567 17.2803 5.57233C17.7937 6.14667 18.1037 6.87867 18.1037 7.774C18.1037 10.9247 16.2323 11.6183 14.4507 11.8213C14.7377 12.076 14.9933 12.575 14.9933 13.3403C14.9933 14.4377 14.9843 15.321 14.9843 15.5913C14.9843 15.8097 15.1283 16.0653 15.5337 15.9847C18.7107 14.899 21 11.8253 21 8.20233C21 3.67233 17.4183 0 13 0Z" fill="black"/>
<path fill-rule="evenodd" clip-rule="evenodd" d="M8.03067 11.777C8.013 11.818 7.95067 11.83 7.89367 11.802C7.83567 11.7753 7.803 11.7197 7.82167 11.6787C7.839 11.6367 7.90167 11.6253 7.95967 11.653C8.01767 11.68 8.05067 11.7363 8.03067 11.777ZM8.35467 12.1477C8.31667 12.1837 8.242 12.167 8.19133 12.1097C8.139 12.0523 8.12933 11.976 8.168 11.9393C8.20733 11.9027 8.27967 11.92 8.332 11.977C8.38433 12.035 8.39467 12.111 8.35467 12.1477ZM8.67 12.62C8.62133 12.655 8.541 12.6223 8.49133 12.5493C8.44233 12.476 8.44233 12.3887 8.49267 12.3537C8.54233 12.3187 8.621 12.3503 8.67133 12.4227C8.72033 12.4967 8.72033 12.5843 8.67 12.62ZM9.10233 13.0767C9.05833 13.126 8.965 13.1127 8.89667 13.045C8.82667 12.979 8.80733 12.885 8.85133 12.8353C8.89567 12.7857 8.98967 12.7997 9.05833 12.8667C9.128 12.9327 9.149 13.0273 9.10233 13.0767ZM9.69833 13.3413C9.679 13.4057 9.589 13.4347 9.49833 13.4077C9.40833 13.3793 9.349 13.3043 9.367 13.2393C9.386 13.1747 9.47633 13.144 9.56767 13.1733C9.65767 13.2013 9.71733 13.276 9.69833 13.3413ZM10.3533 13.3907C10.3553 13.4583 10.2787 13.514 10.1833 13.5153C10.0877 13.5177 10.0103 13.463 10.0093 13.3963C10.0093 13.328 10.0847 13.2727 10.18 13.271C10.2753 13.269 10.3533 13.3233 10.3533 13.3907ZM10.9623 13.2843C10.9737 13.3503 10.9077 13.418 10.8133 13.436C10.7203 13.4533 10.6343 13.4127 10.6227 13.3473C10.611 13.2797 10.6783 13.2117 10.771 13.194C10.8657 13.1773 10.9503 13.2177 10.9623 13.2843Z" fill="black"/>
</g>
<defs>
<clipPath id="clip0_1479_1570">
<rect width="16" height="16" fill="white" transform="translate(5)"/>
</clipPath>
</defs>
</svg>
