<svg width="26" height="16" viewBox="0 0 26 16" fill="none" xmlns="http://www.w3.org/2000/svg">
<g clip-path="url(#clip0_1479_1583)">
<rect width="26" height="16" rx="8" fill="white"/>
<rect width="26" height="16" fill="#848895"/>
<path d="M19.9702 8.0271C19.9697 7.60139 19.8004 7.19325 19.4994 6.89223C19.1984 6.59121 18.7902 6.4219 18.3645 6.42145C17.9747 6.42099 17.5982 6.56346 17.3063 6.82188C16.2444 6.14237 14.8276 5.71429 13.2648 5.66802L14.2212 2.39747L16.569 2.83373C16.569 2.85292 16.565 2.87098 16.5661 2.89017C16.5801 3.1588 16.7001 3.41091 16.8998 3.5912C17.0994 3.77149 17.3624 3.86523 17.6311 3.85186C17.8997 3.83777 18.1517 3.71775 18.332 3.51811C18.5122 3.31847 18.6059 3.05551 18.5925 2.78689C18.5785 2.51825 18.4585 2.26614 18.2589 2.08585C18.0592 1.90557 17.7962 1.81183 17.5275 1.82519C17.3564 1.8343 17.1904 1.88672 17.045 1.97754C16.8997 2.06835 16.7797 2.19459 16.6965 2.34442L16.6957 2.34413L13.8665 1.81842L12.7397 5.66745C11.173 5.70893 9.7516 6.13475 8.68522 6.81285C8.39458 6.55994 8.02216 6.4209 7.63689 6.42145C7.21121 6.42198 6.80311 6.59131 6.50211 6.89231C6.20111 7.19332 6.03177 7.60141 6.03125 8.0271C6.03125 8.57454 6.31315 9.07966 6.76973 9.37426C6.7412 9.53543 6.72656 9.69876 6.72599 9.86244C6.72599 12.1798 9.53545 14.0653 12.9889 14.0653C16.4423 14.0653 19.2511 12.1798 19.2511 9.86216C19.2511 9.70188 19.2365 9.54385 19.2102 9.38809C19.442 9.24441 19.6334 9.04406 19.7663 8.80595C19.8992 8.56783 19.9695 8.29979 19.9702 8.0271ZM10.0123 9.11973C10.0124 8.99015 10.0379 8.86186 10.0876 8.74217C10.1372 8.62247 10.2099 8.51372 10.3015 8.42213C10.3932 8.33054 10.502 8.25789 10.6217 8.20834C10.7414 8.15879 10.8697 8.1333 10.9993 8.13334C11.1289 8.13338 11.2572 8.15894 11.3769 8.20855C11.4965 8.25817 11.6053 8.33088 11.6969 8.42253C11.7885 8.51418 11.8611 8.62297 11.9107 8.74269C11.9602 8.86241 11.9857 8.99072 11.9857 9.12029C11.9856 9.38197 11.8816 9.6329 11.6965 9.81789C11.5114 10.0029 11.2604 10.1067 10.9987 10.1067C10.737 10.1066 10.4861 10.0026 10.3011 9.81749C10.1161 9.6324 10.0123 9.38141 10.0123 9.11973ZM15.3146 11.7887C15.2853 11.8191 14.5773 12.5395 12.9773 12.5395C11.3688 12.5395 10.7254 11.8092 10.6992 11.7782C10.6585 11.7272 10.6391 11.6625 10.6451 11.5976C10.6512 11.5326 10.6821 11.4726 10.7314 11.4299C10.7808 11.3873 10.8447 11.3654 10.9098 11.3689C10.9749 11.3724 11.0362 11.401 11.0807 11.4486C11.0954 11.4644 11.6321 12.0353 12.977 12.0353C14.3456 12.0353 14.9455 11.4441 14.9517 11.4385C14.9991 11.3951 15.0613 11.3715 15.1255 11.3723C15.1897 11.3732 15.2512 11.3985 15.2975 11.4431C15.3437 11.4876 15.3712 11.5482 15.3744 11.6123C15.3776 11.6765 15.3562 11.7397 15.3146 11.7887ZM15.1185 10.1065C14.989 10.1066 14.8607 10.0811 14.741 10.0316C14.6212 9.98207 14.5125 9.90945 14.4208 9.81789C14.3292 9.72632 14.2565 9.6176 14.2068 9.49793C14.1572 9.37826 14.1316 9.24998 14.1316 9.12043C14.1315 8.99088 14.157 8.86258 14.2065 8.74287C14.256 8.62316 14.3286 8.51437 14.4202 8.42273C14.5118 8.33108 14.6205 8.25837 14.7402 8.20874C14.8598 8.15911 14.9881 8.13354 15.1177 8.13348C15.3793 8.13337 15.6303 8.2372 15.8154 8.42213C16.0005 8.60706 16.1045 8.85794 16.1046 9.11959C16.1047 9.38123 16.0009 9.6322 15.816 9.81729C15.631 10.0024 15.3802 10.1064 15.1185 10.1065Z" fill="black"/>
</g>
<defs>
<clipPath id="clip0_1479_1583">
<rect width="26" height="16" rx="8" fill="white"/>
</clipPath>
</defs>
</svg>
