<svg width="26" height="16" viewBox="0 0 26 16" fill="none" xmlns="http://www.w3.org/2000/svg">
<rect width="26" height="16" fill="#848895"/>
<path d="M19.9109 4.2517C19.3904 4.48271 18.8381 4.63408 18.2726 4.70071C18.8685 4.34448 19.3143 3.78348 19.5268 3.12253C18.9669 3.45497 18.3543 3.68921 17.7155 3.8151C17.4487 3.53034 17.1262 3.30344 16.7681 3.14848C16.4099 2.99351 16.0238 2.91379 15.6336 2.91425C14.0585 2.91425 12.7814 4.1913 12.7814 5.76666C12.7814 5.9899 12.8065 6.20749 12.8554 6.41662C10.4847 6.29752 8.38271 5.16214 6.97583 3.43636C6.72209 3.87169 6.58883 4.36673 6.58975 4.87061C6.58975 5.86008 7.09324 6.73327 7.85862 7.24466C7.40566 7.23029 6.96269 7.10788 6.56661 6.88765L6.56633 6.92377C6.56633 8.30553 7.54959 9.45812 8.85458 9.72059C8.43439 9.83434 7.99381 9.85094 7.56624 9.76913C7.92946 10.9023 8.98271 11.7272 10.2307 11.75C9.22039 12.5431 7.97265 12.9733 6.68825 12.9712C6.45824 12.9712 6.23105 12.9577 6.00781 12.9311C7.31198 13.7694 8.82996 14.2143 10.3803 14.2127C15.6271 14.2127 18.4958 9.8665 18.4958 6.09714C18.4958 5.97353 18.4933 5.8502 18.4879 5.72772C19.0465 5.32448 19.5284 4.82461 19.9109 4.2517Z" fill="black"/>
</svg>
