<svg width="27" height="20" viewBox="0 0 27 20" fill="none" xmlns="http://www.w3.org/2000/svg">
<g clip-path="url(#clip0_1479_1507)">
<path d="M25.6175 3.84946C25.3334 2.78344 24.4966 1.94401 23.4337 1.65912C21.5076 1.14136 13.7836 1.14136 13.7836 1.14136C13.7836 1.14136 6.05969 1.14136 4.13346 1.65912C3.07076 1.94401 2.23376 2.78344 1.94973 3.84946C1.43359 5.78151 1.43359 9.81259 1.43359 9.81259C1.43359 9.81259 1.43359 13.8437 1.94973 15.7759C2.23376 16.8418 3.07076 17.6812 4.13346 17.9662C6.05969 18.4839 13.7836 18.4839 13.7836 18.4839C13.7836 18.4839 21.5076 18.4839 23.4337 17.9662C24.4966 17.6812 25.3334 16.8418 25.6175 15.7759C26.1336 13.8437 26.1336 9.81259 26.1336 9.81259C26.1336 9.81259 26.1336 5.78151 25.6175 3.84946Z" fill="#ED1D24"/>
<path d="M11.2559 13.4726L17.7116 9.81279L11.2559 6.15265V13.4726Z" fill="white"/>
</g>
<defs>
<clipPath id="clip0_1479_1507">
<rect width="26" height="19" fill="white" transform="translate(0.783203 0.3125)"/>
</clipPath>
</defs>
</svg>
