<svg width="26" height="16" viewBox="0 0 26 16" fill="none" xmlns="http://www.w3.org/2000/svg">
<rect width="26" height="16" fill="#848895"/>
<path d="M20.534 4.86665C20.534 4.73331 20.334 3.66665 19.8673 3.19998C19.2673 2.53331 18.6007 2.46665 18.2673 2.46665H18.2007C16.134 2.33331 13.0673 2.33331 13.0007 2.33331C13.0007 2.33331 9.86732 2.33331 7.80065 2.46665H7.73398C7.40065 2.46665 6.73398 2.53331 6.13398 3.19998C5.66732 3.73331 5.46732 4.79998 5.46732 4.93331C5.46732 4.99998 5.33398 6.19998 5.33398 7.46665V8.59998C5.33398 9.86665 5.46732 11.0666 5.46732 11.1333C5.46732 11.2666 5.66732 12.3333 6.13398 12.8C6.66732 13.4 7.33398 13.4666 7.73398 13.5333H7.93398C9.13398 13.6666 12.8007 13.6666 12.934 13.6666C12.934 13.6666 16.0673 13.6666 18.134 13.5333H18.2007C18.534 13.4666 19.2007 13.4 19.8007 12.8C20.2673 12.2666 20.4673 11.2 20.4673 11.0666C20.4673 11 20.6007 9.79998 20.6007 8.53331V7.39998C20.6673 6.19998 20.534 4.93331 20.534 4.86665ZM15.6007 8.13331L11.6007 10.2666C11.534 10.2666 11.534 10.3333 11.4673 10.3333C11.4007 10.3333 11.334 10.3333 11.334 10.2666C11.2673 10.2 11.2007 10.1333 11.2007 9.99998V5.66665C11.2007 5.53331 11.2673 5.46665 11.334 5.39998C11.4007 5.33331 11.534 5.33331 11.6673 5.39998L15.6673 7.53331C15.8007 7.59998 15.8673 7.66665 15.8673 7.79998C15.8673 7.93331 15.734 8.06665 15.6007 8.13331Z" fill="black"/>
</svg>
